# xmcd CD database file
#
# Track frame offsets:
#	150
#	4579
#	28742
#	55106
#	76792
#	103190
#	123629
#	138885
#	168993
#	192622
#	213575
#	234744
#
# Disc length: 3438 seconds
#
# Revision: 8
# Processed by: cddbd v1.5PL3 Copyright (c) Steve Scherf et al.
# Submitted via: CDex 1.51
#
DISCID=a20d6c0c
DTITLE=Mr. Children - BOLERO
DYEAR=1997
DGENRE=Rock
TTITLE0=prologue
TTITLE1=Everything (It's you)
TTITLE2=Timemachine ni notte
TTITLE3=Brandnew my lover
TTITLE4=[es] (Theme of es)
TTITLE5=SeesawGame
TTITLE6=Kasa no Shita no Kimini Tsugu
TTITLE7=ALIVE
TTITLE8=Shiawase no category
TTITLE9=everybody goes
TTITLE10=Bolero
TTITLE11=Tomorrow never knows (remix)
EXTD=YEAR: 1997
EXTT0=
EXTT1=
EXTT2=
EXTT3=
EXTT4=
EXTT5=
EXTT6=
EXTT7=
EXTT8=
EXTT9=
EXTT10=
EXTT11=
PLAYORDER=
